<?xml version="1.0" encoding="utf-8"?>
<!-- Generator: Adobe Illustrator 16.2.0, SVG Export Plug-In . SVG Version: 6.00 Build 0)  -->
<!DOCTYPE svg PUBLIC "-//W3C//DTD SVG 1.1//EN" "http://www.w3.org/Graphics/SVG/1.1/DTD/svg11.dtd">
<svg version="1.1" id="レイヤー_1" xmlns="http://www.w3.org/2000/svg" xmlns:xlink="http://www.w3.org/1999/xlink" x="0px"
	 y="0px" width="20px" height="20px" viewBox="0 0 20 20" enable-background="new 0 0 20 20" xml:space="preserve">
<g>
	<path fill="#DB1F1F" d="M10,19.775c-5.39,0-9.775-4.385-9.775-9.775c0-5.39,4.385-9.775,9.775-9.775
		c5.391,0,9.775,4.385,9.775,9.775C19.775,15.391,15.391,19.775,10,19.775z"/>
	<path fill="#EDEDED" d="M10,0.35c5.321,0,9.65,4.329,9.65,9.65c0,5.321-4.329,9.65-9.65,9.65c-5.321,0-9.65-4.329-9.65-9.65
		C0.35,4.679,4.679,0.35,10,0.35 M10,0.1c-5.467,0-9.9,4.433-9.9,9.9c0,5.467,4.433,9.9,9.9,9.9c5.467,0,9.9-4.434,9.9-9.9
		C19.9,4.533,15.467,0.1,10,0.1L10,0.1z"/>
</g>
<g>
	<path fill="#FFFFFF" d="M6.168,13.035c0.028,0,0.07-0.027,0.084-0.069C7.107,10.697,8.34,7.377,9.18,5.094
		c0.252-0.028,0.896-0.028,1.919-0.028c0.813,2.353,1.919,5.701,2.689,7.956l0.715,0.056c0,0.379,0,0.785-0.015,1.177
		c-0.462,0-1.148,0-1.681,0c-0.729,0-1.611,0-2.256,0c0-0.392,0-0.798,0.014-1.19l0.687-0.042c0.027,0,0.055-0.028,0.041-0.07
		c-0.07-0.21-0.195-0.658-0.279-0.868c-0.015-0.056-0.042-0.07-0.099-0.07l-2.591,0.028c-0.07,0.308-0.182,0.7-0.238,0.994
		l0.771,0.042c0,0.379,0,0.785-0.014,1.177c-0.56,0-1.289,0-1.975,0c-0.462,0-0.952,0-1.373,0c0-0.392,0.014-0.798,0.028-1.177
		L6.168,13.035z M9.643,7.671C9.32,8.708,8.984,9.814,8.69,10.767c-0.014,0.056-0.014,0.084,0.028,0.084h1.961
		c-0.294-0.924-0.63-2.073-0.967-3.18H9.643z"/>
</g>
</svg>
