<?xml version="1.0" encoding="utf-8"?>
<!-- Generator: Adobe Illustrator 16.2.0, SVG Export Plug-In . SVG Version: 6.00 Build 0)  -->
<!DOCTYPE svg PUBLIC "-//W3C//DTD SVG 1.1//EN" "http://www.w3.org/Graphics/SVG/1.1/DTD/svg11.dtd">
<svg version="1.1" id="レイヤー_1" xmlns="http://www.w3.org/2000/svg" xmlns:xlink="http://www.w3.org/1999/xlink" x="0px"
	 y="0px" width="20px" height="20px" viewBox="0 0 20 20" enable-background="new 0 0 20 20" xml:space="preserve">
<g>
	<path fill="#2F38A9" d="M10,19.775c-5.39,0-9.775-4.385-9.775-9.775c0-5.39,4.385-9.775,9.775-9.775
		c5.391,0,9.775,4.385,9.775,9.775C19.775,15.391,15.391,19.775,10,19.775z"/>
	<path fill="#EDEDED" d="M10,0.35c5.321,0,9.65,4.329,9.65,9.65c0,5.321-4.329,9.65-9.65,9.65c-5.321,0-9.65-4.329-9.65-9.65
		C0.35,4.679,4.679,0.35,10,0.35 M10,0.1c-5.467,0-9.9,4.433-9.9,9.9c0,5.467,4.433,9.9,9.9,9.9c5.467,0,9.9-4.434,9.9-9.9
		C19.9,4.533,15.467,0.1,10,0.1L10,0.1z"/>
</g>
<g>
	<path fill="#FFFFFF" d="M7.167,5.476C7.994,4.93,8.974,4.705,9.968,4.705c1.05,0,1.807,0.238,2.479,0.687
		c1.064,0.687,1.779,2.115,1.779,3.796c0,1.583-0.616,2.913-1.471,3.71c-0.49,0.435-1.022,0.729-1.247,0.813v0.07
		c0.49,0.322,0.938,0.547,1.513,0.756c0.49,0.196,0.896,0.196,1.261,0.196c0.322,0,0.757-0.042,1.009-0.098
		c0.07,0.406,0.126,0.882,0.14,1.316c-0.714,0.252-1.736,0.477-2.185,0.477c-0.196,0-0.589-0.042-0.953-0.238
		c-0.854-0.42-1.764-1.12-2.787-2.101c-0.042,0-0.084,0-0.141,0c-1.106,0-2.283-0.448-3.039-1.219
		c-0.799-0.799-1.19-1.946-1.19-3.388C5.136,7.633,6.06,6.19,7.167,5.476z M8.484,12.282c0.406,0.448,0.826,0.603,1.261,0.603
		c0.406,0,0.854-0.098,1.177-0.546c0.475-0.631,0.671-1.652,0.671-2.758c0-1.149-0.21-2.255-0.588-2.915
		c-0.294-0.532-0.701-0.77-1.163-0.77c-0.574,0-0.967,0.182-1.316,0.56C8.063,6.961,7.784,8.109,7.784,9.384
		C7.784,10.996,8.036,11.708,8.484,12.282z"/>
</g>
<text transform="matrix(1 0 0 1 4.7788 13.9707)" display="none" fill="#FFFFFF" font-family="'ChaparralPro-Bold'" font-size="14">Q</text>
</svg>
